<?xml version="1.0" standalone="no"?>
<!DOCTYPE svg PUBLIC "-//W3C//DTD SVG 20010904//EN"
 "http://www.w3.org/TR/2001/REC-SVG-20010904/DTD/svg10.dtd">
<svg version="1.0" xmlns="http://www.w3.org/2000/svg"
 width="135.000000pt" height="135.000000pt" viewBox="0 0 135.000000 135.000000"
 preserveAspectRatio="xMidYMid meet">

<g transform="translate(0.000000,135.000000) scale(0.100000,-0.100000)"
fill="#000000" stroke="none">
<path d="M577 1300 c-158 -19 -326 -94 -422 -187 -158 -154 -196 -339 -108
-519 43 -88 111 -156 242 -241 3 -2 -13 -66 -34 -144 -54 -201 -54 -201 158
-60 l167 111 117 4 c208 8 381 75 505 197 178 175 196 416 44 598 -145 173
-417 271 -669 241z"/>
</g>
</svg>
