<?xml version="1.0" encoding="UTF-8"?>
<svg version="1.1" xmlns="http://www.w3.org/2000/svg" width="135" height="135">
<path d="M0 0 C5.94 0 11.88 0 18 0 C23.28 0.99 28.56 1.98 34 3 C38.29 4.65 42.58 6.3 47 8 C50.63 10.31 54.26 12.62 58 15 C61.63 18.63 65.26 22.26 69 26 C71.31 30.62 73.62 35.24 76 40 C76.33 41.32 76.66 42.64 77 44 C77 49.94 77 55.88 77 62 C75.35 65.96 73.7 69.92 72 74 C69.36 77.63 66.72 81.26 64 85 C60.7 87.64 57.4 90.28 54 93 C46.08 96.96 46.08 96.96 38 101 C32.39 102.32 26.78 103.64 21 105 C10.605 105.495 10.605 105.495 0 106 C-9.9 112.6 -19.8 119.2 -30 126 C-32.475 126.495 -32.475 126.495 -35 127 C-35.66 125.68 -36.32 124.36 -37 123 C-34.69 114.75 -32.38 106.5 -30 98 C-30 97.34 -30 96.68 -30 96 C-34.95 92.535 -34.95 92.535 -40 89 C-42.31 87.02 -44.62 85.04 -47 83 C-49.31 79.7 -51.62 76.4 -54 73 C-55.32 69.37 -56.64 65.74 -58 62 C-58 56.06 -58 50.12 -58 44 C-56.68 40.37 -55.36 36.74 -54 33 C-52.02 30.03 -50.04 27.06 -48 24 C-43.545 19.545 -43.545 19.545 -39 15 C-34.71 12.36 -30.42 9.72 -26 7 C-18.575 4.525 -18.575 4.525 -11 2 C-5.555 1.01 -5.555 1.01 0 0 Z " fill="#000000" transform="translate(58,4)"/>
</svg>
